G04 (created by PCBnew (20090216-final)) date Thu 20 Jan 2011 12:21:35 PM PST*
G01*
G70*
G90*
%MOIN*%
G04 Gerber Fmt 3.4, Leading zero omitted, Abs format*
%FSLAX34Y34*%
G04 APERTURE LIST*
%ADD10C,0.015000*%
%ADD11R,0.069000X0.060000*%
%ADD12C,0.069000*%
%ADD13C,0.120000*%
%ADD14R,0.065000X0.065000*%
%ADD15C,0.065000*%
%ADD16C,0.055000*%
%ADD17R,0.063000X0.063000*%
%ADD18C,0.063000*%
%ADD19C,0.080000*%
%ADD20C,0.189000*%
%ADD21R,0.189000X0.189000*%
%ADD22R,0.055000X0.055000*%
%ADD23R,0.060000X0.060000*%
%ADD24C,0.060000*%
%ADD25C,0.070900*%
%ADD26R,0.070900X0.070900*%
%ADD27C,0.130000*%
%ADD28C,0.045000*%
%ADD29C,0.010000*%
%ADD30C,0.030000*%
%ADD31C,0.040000*%
%ADD32C,0.020000*%
G04 APERTURE END LIST*
G54D10*
X101980Y-15710D02*
X14980Y-15710D01*
X14980Y-60210D02*
X14980Y-15710D01*
X101980Y-60210D02*
X101980Y-15710D01*
X14980Y-60210D02*
X101980Y-60210D01*
G54D11*
X39980Y-30710D03*
G54D12*
X39980Y-29710D03*
X39980Y-28710D03*
X39980Y-27710D03*
X39980Y-26710D03*
X39980Y-25710D03*
X39980Y-24710D03*
X39980Y-23710D03*
X39980Y-22710D03*
X39980Y-21710D03*
X39980Y-20710D03*
X39980Y-19710D03*
X39980Y-18710D03*
X39980Y-17710D03*
X39980Y-16710D03*
X33980Y-16710D03*
X33980Y-17710D03*
X33980Y-18710D03*
X33980Y-19710D03*
X33980Y-20710D03*
X33980Y-21710D03*
X33980Y-22710D03*
X33980Y-23710D03*
X33980Y-24710D03*
X33980Y-25710D03*
X33980Y-26710D03*
X33980Y-27710D03*
X33980Y-28710D03*
X33980Y-29710D03*
X33980Y-30710D03*
G54D13*
X98480Y-59210D03*
X94480Y-59210D03*
G54D14*
X96480Y-57210D03*
G54D15*
X97480Y-57210D03*
G54D13*
X98480Y-55210D03*
X90480Y-59210D03*
X86480Y-59210D03*
G54D14*
X88480Y-57210D03*
G54D15*
X89480Y-57210D03*
G54D13*
X90480Y-55210D03*
X82480Y-59210D03*
X78480Y-59210D03*
G54D14*
X80480Y-57210D03*
G54D15*
X81480Y-57210D03*
G54D13*
X82480Y-55210D03*
X74480Y-59210D03*
X70480Y-59210D03*
G54D14*
X72480Y-57210D03*
G54D15*
X73480Y-57210D03*
G54D13*
X74480Y-55210D03*
X66480Y-59210D03*
X62480Y-59210D03*
G54D14*
X64480Y-57210D03*
G54D15*
X65480Y-57210D03*
G54D13*
X66480Y-55210D03*
X58480Y-59210D03*
X54480Y-59210D03*
G54D14*
X56480Y-57210D03*
G54D15*
X57480Y-57210D03*
G54D13*
X58480Y-55210D03*
X50480Y-59210D03*
X46480Y-59210D03*
G54D14*
X48480Y-57210D03*
G54D15*
X49480Y-57210D03*
G54D13*
X50480Y-55210D03*
X42480Y-59210D03*
X38480Y-59210D03*
G54D14*
X40480Y-57210D03*
G54D15*
X41480Y-57210D03*
G54D13*
X42480Y-55210D03*
X30480Y-59210D03*
X26480Y-59210D03*
G54D14*
X28480Y-57210D03*
G54D15*
X29480Y-57210D03*
G54D13*
X30480Y-55210D03*
X22480Y-59210D03*
X18480Y-59210D03*
G54D14*
X20480Y-57210D03*
G54D15*
X21480Y-57210D03*
G54D13*
X22480Y-55210D03*
G54D16*
X60280Y-49710D03*
X58280Y-49710D03*
X52280Y-42210D03*
X50280Y-42210D03*
X26530Y-29710D03*
X28530Y-29710D03*
X33980Y-51210D03*
X31980Y-51210D03*
X21980Y-51210D03*
X19980Y-51210D03*
X19480Y-41210D03*
X21480Y-41210D03*
X24980Y-41210D03*
X22980Y-41210D03*
X29280Y-22110D03*
X29280Y-24110D03*
X22980Y-33710D03*
X24980Y-33710D03*
G54D17*
X54269Y-17210D03*
G54D18*
X52891Y-17210D03*
G54D17*
X49769Y-17210D03*
G54D18*
X48391Y-17210D03*
G54D17*
X45269Y-17210D03*
G54D18*
X43891Y-17210D03*
G54D16*
X52280Y-43710D03*
X50280Y-43710D03*
X62280Y-49710D03*
X64280Y-49710D03*
X33980Y-49710D03*
X31980Y-49710D03*
X21980Y-49710D03*
X19980Y-49710D03*
X22980Y-35210D03*
X24980Y-35210D03*
G54D19*
X89956Y-43460D03*
X89956Y-41460D03*
X81964Y-46476D03*
X81964Y-42460D03*
X81964Y-38444D03*
X89956Y-30460D03*
X89956Y-28460D03*
X81964Y-33476D03*
X81964Y-29460D03*
X81964Y-25444D03*
G54D20*
X97480Y-18710D03*
G54D21*
X97480Y-21190D03*
G54D20*
X95511Y-19610D03*
G54D22*
X26980Y-21610D03*
G54D16*
X25980Y-21610D03*
X24980Y-21610D03*
X23980Y-21610D03*
X22980Y-21610D03*
X21980Y-21610D03*
X20980Y-21610D03*
X20980Y-24610D03*
X21980Y-24610D03*
X22980Y-24610D03*
X23980Y-24610D03*
X24980Y-24610D03*
X25980Y-24610D03*
X26980Y-24610D03*
G54D22*
X63280Y-45210D03*
G54D16*
X62280Y-45210D03*
X61280Y-45210D03*
X60280Y-45210D03*
X59280Y-45210D03*
X58280Y-45210D03*
X57280Y-45210D03*
X56280Y-45210D03*
X55280Y-45210D03*
X54280Y-45210D03*
X53280Y-45210D03*
X52280Y-45210D03*
X52280Y-48210D03*
X53280Y-48210D03*
X54280Y-48210D03*
X55280Y-48210D03*
X56280Y-48210D03*
X57280Y-48210D03*
X58280Y-48210D03*
X59280Y-48210D03*
X60280Y-48210D03*
X61280Y-48210D03*
X62280Y-48210D03*
X63280Y-48210D03*
G54D22*
X58780Y-33060D03*
G54D16*
X59780Y-33060D03*
X60780Y-33060D03*
X60780Y-30060D03*
X59780Y-30060D03*
X58780Y-30060D03*
G54D22*
X50280Y-33060D03*
G54D16*
X51280Y-33060D03*
X52280Y-33060D03*
X52280Y-30060D03*
X51280Y-30060D03*
X50280Y-30060D03*
G54D22*
X34980Y-45210D03*
G54D16*
X33980Y-45210D03*
X32980Y-45210D03*
X31980Y-45210D03*
X31980Y-48210D03*
X32980Y-48210D03*
X33980Y-48210D03*
X34980Y-48210D03*
G54D22*
X22980Y-45210D03*
G54D16*
X21980Y-45210D03*
X20980Y-45210D03*
X19980Y-45210D03*
X19980Y-48210D03*
X20980Y-48210D03*
X21980Y-48210D03*
X22980Y-48210D03*
G54D22*
X22980Y-36710D03*
G54D16*
X21980Y-36710D03*
X20980Y-36710D03*
X19980Y-36710D03*
X19980Y-39710D03*
X20980Y-39710D03*
X21980Y-39710D03*
X22980Y-39710D03*
G54D23*
X30680Y-33710D03*
G54D24*
X30680Y-34710D03*
X29680Y-33710D03*
X29680Y-34710D03*
G54D23*
X61780Y-24910D03*
G54D24*
X61780Y-25910D03*
X60780Y-24910D03*
X60780Y-25910D03*
X59780Y-24910D03*
X59780Y-25910D03*
X58780Y-24910D03*
X58780Y-25910D03*
G54D23*
X53280Y-24910D03*
G54D24*
X53280Y-25910D03*
X52280Y-24910D03*
X52280Y-25910D03*
X51280Y-24910D03*
X51280Y-25910D03*
X50280Y-24910D03*
X50280Y-25910D03*
G54D16*
X58780Y-35060D03*
X55780Y-35060D03*
X50280Y-34860D03*
X47280Y-34860D03*
X37480Y-48210D03*
X37480Y-45210D03*
X25480Y-48210D03*
X25480Y-45210D03*
G54D24*
X25730Y-27710D03*
X29730Y-27710D03*
G54D25*
X88919Y-17210D03*
G54D26*
X90297Y-17210D03*
G54D25*
X87541Y-17210D03*
X85966Y-17210D03*
G54D23*
X22080Y-28410D03*
G54D24*
X22080Y-29410D03*
X21080Y-28410D03*
X21080Y-29410D03*
G54D27*
X15980Y-16710D03*
X100980Y-16710D03*
X100980Y-59210D03*
X15980Y-59210D03*
G54D25*
X20480Y-17210D03*
G54D26*
X21858Y-17210D03*
G54D25*
X19102Y-17210D03*
X26230Y-17210D03*
G54D26*
X27608Y-17210D03*
G54D25*
X24852Y-17210D03*
X70230Y-17210D03*
G54D26*
X71608Y-17210D03*
G54D25*
X68852Y-17210D03*
X75980Y-17210D03*
G54D26*
X77358Y-17210D03*
G54D25*
X74602Y-17210D03*
X81730Y-17210D03*
G54D26*
X83108Y-17210D03*
G54D25*
X80352Y-17210D03*
X58730Y-17210D03*
G54D26*
X60108Y-17210D03*
G54D25*
X57352Y-17210D03*
X64480Y-17210D03*
G54D26*
X65858Y-17210D03*
G54D25*
X63102Y-17210D03*
G54D28*
X63700Y-27700D03*
X65030Y-27180D03*
X43200Y-37000D03*
X66400Y-26650D03*
X75290Y-20790D03*
X45780Y-22160D03*
X38690Y-19870D03*
X36570Y-21280D03*
X43140Y-18950D03*
X43510Y-19520D03*
X28530Y-31540D03*
X30280Y-25560D03*
X59400Y-23150D03*
X75300Y-23150D03*
X84150Y-22350D03*
X38880Y-38460D03*
X58200Y-22500D03*
X75300Y-22500D03*
M02*
