M48
;DRILL file {PCBnew (20090216-final)} date Mon 24 Jan 2011 04:01:28 PM PST
;FORMAT={2:4/ absolute / inch / suppress trailing zeros}
R,T
VER,1
FMAT,2
INCH,LZ
TCST,OFF
ICI,OFF
ATC,ON
T1C0.025
T2C0.032
T3C0.035
T4C0.039
T5C0.039
T6C0.040
T7C0.045
T8C0.047
T9C0.079
T10C0.110
T11C0.120
%
M47
G05
M72
T1
X02853Y-03154
X03028Y-02556
X03657Y-02128
X03869Y-01987
X03888Y-03846
X04314Y-01895
X0432Y-037
X04351Y-01952
X04578Y-02216
X0582Y-0225
X0594Y-02315
X0613Y-0396
X0633Y-025
X0637Y-0277
X064Y-0243
X06503Y-02718
X0664Y-02665
X07529Y-02079
X0753Y-0225
X0753Y-02315
X08415Y-02235
T2
X01948Y-04121
X01998Y-03671
X01998Y-03971
X01998Y-04521
X01998Y-04821
X01998Y-04971
X01998Y-05121
X02098Y-02161
X02098Y-02461
X02098Y-03671
X02098Y-03971
X02098Y-04521
X02098Y-04821
X02148Y-04121
X02198Y-02161
X02198Y-02461
X02198Y-03671
X02198Y-03971
X02198Y-04521
X02198Y-04821
X02198Y-04971
X02198Y-05121
X02298Y-02161
X02298Y-02461
X02298Y-03371
X02298Y-03521
X02298Y-03671
X02298Y-03971
X02298Y-04121
X02298Y-04521
X02298Y-04821
X02398Y-02161
X02398Y-02461
X02498Y-02161
X02498Y-02461
X02498Y-03371
X02498Y-03521
X02498Y-04121
X02548Y-04521
X02548Y-04821
X02573Y-02771
X02598Y-02161
X02598Y-02461
X02653Y-02971
X02698Y-02161
X02698Y-02461
X02853Y-02971
X02928Y-02211
X02928Y-02411
X02973Y-02771
X03198Y-04521
X03198Y-04821
X03198Y-04971
X03198Y-05121
X03298Y-04521
X03298Y-04821
X03398Y-04521
X03398Y-04821
X03398Y-04971
X03398Y-05121
X03498Y-04521
X03498Y-04821
X03748Y-04521
X03748Y-04821
X04728Y-03486
X05028Y-03006
X05028Y-03306
X05028Y-03486
X05028Y-04221
X05028Y-04371
X05128Y-03006
X05128Y-03306
X05228Y-03006
X05228Y-03306
X05228Y-04221
X05228Y-04371
X05228Y-04521
X05228Y-04821
X05328Y-04521
X05328Y-04821
X05428Y-04521
X05428Y-04821
X05528Y-04521
X05528Y-04821
X05578Y-03506
X05628Y-04521
X05628Y-04821
X05728Y-04521
X05728Y-04821
X05828Y-04521
X05828Y-04821
X05828Y-04971
X05878Y-03006
X05878Y-03306
X05878Y-03506
X05928Y-04521
X05928Y-04821
X05978Y-03006
X05978Y-03306
X06028Y-04521
X06028Y-04821
X06028Y-04971
X06078Y-03006
X06078Y-03306
X06128Y-04521
X06128Y-04821
X06228Y-04521
X06228Y-04821
X06228Y-04971
X06328Y-04521
X06328Y-04821
X06428Y-04971
X0692Y-0258
X0692Y-0288
X0712Y-0258
X0712Y-0288
T3
X02048Y-05721
X02148Y-05721
X02848Y-05721
X02948Y-05721
X04048Y-05721
X04148Y-05721
X04848Y-05721
X04948Y-05721
X05648Y-05721
X05748Y-05721
X06448Y-05721
X06548Y-05721
X07248Y-05721
X07348Y-05721
X08048Y-05721
X08148Y-05721
X08848Y-05721
X08948Y-05721
X09648Y-05721
X09748Y-05721
T4
X03398Y-01671
X03398Y-01771
X03398Y-01871
X03398Y-01971
X03398Y-02071
X03398Y-02171
X03398Y-02271
X03398Y-02371
X03398Y-02471
X03398Y-02571
X03398Y-02671
X03398Y-02771
X03398Y-02871
X03398Y-02971
X03398Y-03071
X03998Y-01671
X03998Y-01771
X03998Y-01871
X03998Y-01971
X03998Y-02071
X03998Y-02171
X03998Y-02271
X03998Y-02371
X03998Y-02471
X03998Y-02571
X03998Y-02671
X03998Y-02771
X03998Y-02871
X03998Y-02971
X03998Y-03071
T5
X043891Y-01721
X045269Y-01721
X048391Y-01721
X049769Y-01721
X052891Y-01721
X054269Y-01721
T6
X02108Y-02841
X02108Y-02941
X02208Y-02841
X02208Y-02941
X02968Y-03371
X02968Y-03471
X03068Y-03371
X03068Y-03471
X05028Y-02491
X05028Y-02591
X05128Y-02491
X05128Y-02591
X05228Y-02491
X05228Y-02591
X05328Y-02491
X05328Y-02591
X05878Y-02491
X05878Y-02591
X05978Y-02491
X05978Y-02591
X06078Y-02491
X06078Y-02591
X06178Y-02491
X06178Y-02591
T7
X081964Y-025444
X081964Y-02946
X081964Y-033476
X081964Y-038444
X081964Y-04246
X081964Y-046476
X089956Y-02846
X089956Y-03046
X089956Y-04146
X089956Y-04346
T8
X019102Y-01721
X02048Y-01721
X021858Y-01721
X024852Y-01721
X02623Y-01721
X027608Y-01721
X057352Y-01721
X05873Y-01721
X060108Y-01721
X063102Y-01721
X06448Y-01721
X065858Y-01721
X068852Y-01721
X07023Y-01721
X071608Y-01721
X074602Y-01721
X07598Y-01721
X077358Y-01721
X080352Y-01721
X08173Y-01721
X083108Y-01721
X085966Y-01721
X087541Y-01721
X088919Y-01721
X090297Y-01721
T9
X01848Y-05921
X02248Y-05521
X02248Y-05921
X02648Y-05921
X03048Y-05521
X03048Y-05921
X03848Y-05921
X04248Y-05521
X04248Y-05921
X04648Y-05921
X05048Y-05521
X05048Y-05921
X05448Y-05921
X05848Y-05521
X05848Y-05921
X06248Y-05921
X06648Y-05521
X06648Y-05921
X07048Y-05921
X07448Y-05521
X07448Y-05921
X07848Y-05921
X08248Y-05521
X08248Y-05921
X08648Y-05921
X09048Y-05521
X09048Y-05921
X09448Y-05921
X09848Y-05521
X09848Y-05921
T10
X095511Y-01961
X09748Y-01871
T11
X01598Y-01671
X01598Y-05921
X09748Y-02119
X10098Y-01671
X10098Y-05921
T0
M30
